<svg height="800" width="800" version="1.1" id="Capa_1" xmlns="http://www.w3.org/2000/svg" viewBox="0 0 330 330" xml:space="preserve"><g id="XMLID_19_"><circle id="XMLID_20_" style="fill:#0052b4" cx="160" cy="170" r="160"/><path id="XMLID_21_" style="fill:#006df0" d="M160 10c88.365 0 160 71.634 160 160s-71.635 160-160 160"/><circle id="XMLID_22_" style="fill:#ffda44" cx="160" cy="170" r="120"/><circle id="XMLID_23_" style="fill:#0052b4" cx="160" cy="170" r="80"/><path id="XMLID_24_" style="fill:#006df0" d="M160 90c44.183 0 80 35.817 80 80s-35.817 80-80 80"/><circle id="XMLID_25_" style="fill:#ffda44" cx="160" cy="170" r="40"/><g id="XMLID_26_"><path id="XMLID_27_" style="fill:#fff" d="m241.611 67.175-8.031 8.031-28.62 28.62-29.34 29.34-22.397 22.398c-5.857 5.857-5.857 15.355 0 21.213 5.857 5.858 15.355 5.858 21.214 0l22.398-22.397 29.34-29.339 28.619-28.62 8.032-8.031-21.215-21.215z"/><path id="XMLID_28_" style="fill:#ff5023" d="m241.611 67.175-3.535 24.749 42.426-42.427L287.574 0l-37.65 37.649-4.778 4.778z"/><path id="XMLID_29_" style="fill:#ff9811" d="m238.076 91.924 24.749-3.535 24.748-3.536 4.778-4.778L330 42.427l-49.498 7.07z"/></g></g></svg>